<!DOCTYPE svg PUBLIC "-//W3C//DTD SVG 1.1//EN" "http://www.w3.org/Graphics/SVG/1.1/DTD/svg11.dtd">
<!-- Uploaded to: SVG Repo, www.svgrepo.com, Transformed by: SVG Repo Mixer Tools -->
<svg width="800px" height="800px" viewBox="0 0 24 24" id="Flat_Color" data-name="Flat Color" xmlns="http://www.w3.org/2000/svg" fill="#000000">
<g id="SVGRepo_bgCarrier" stroke-width="0"/>
<g id="SVGRepo_tracerCarrier" stroke-linecap="round" stroke-linejoin="round"/>
<g id="SVGRepo_iconCarrier">
<path id="primary" d="M19,9.5a4.51,4.51,0,0,0-2.2-3.86,5,5,0,0,0-9.6,0A4.51,4.51,0,0,0,5,9.5a4.44,4.44,0,0,0,1.12,2.95A4.7,4.7,0,0,0,6,13.5,4.51,4.51,0,0,0,10.5,18a4.32,4.32,0,0,0,1.5-.27,4.32,4.32,0,0,0,1.5.27A4.51,4.51,0,0,0,18,13.5a4.7,4.7,0,0,0-.12-1.05A4.44,4.44,0,0,0,19,9.5Z" style="fill:#000000"/>
<path id="secondary" d="M14,20H13V11a1,1,0,0,0-2,0v9H10a1,1,0,0,0,0,2h4a1,1,0,0,0,0-2Z" style="fill:#3182CE"/>
</g>
</svg>